<?xml version="1.0" encoding="UTF-8"?>
<svg xmlns="http://www.w3.org/2000/svg" width="512" height="512" viewBox="0 0 512 512">
  <defs>
    <linearGradient id="fundo" x1="0%" y1="0%" x2="100%" y2="100%">
      <stop offset="0%" stop-color="#0ea5e9"/>
      <stop offset="50%" stop-color="#6366f1"/>
      <stop offset="100%" stop-color="#7c3aed"/>
    </linearGradient>
    <linearGradient id="cranio" x1="0%" y1="0%" x2="0%" y2="100%">
      <stop offset="0%" stop-color="#f8fafc"/>
      <stop offset="100%" stop-color="#cbd5e1"/>
    </linearGradient>
    <filter id="sombra" x="-15%" y="-15%" width="130%" height="130%">
      <feDropShadow dx="0" dy="10" stdDeviation="14" flood-color="#000" flood-opacity="0.5"/>
    </filter>
  </defs>

  <rect x="32" y="32" width="448" height="448" rx="104" fill="url(#fundo)"/>
  <rect x="32" y="32" width="448" height="448" rx="104" fill="none" stroke="#ffffff" stroke-opacity="0.15" stroke-width="5"/>

  <g filter="url(#sombra)" transform="translate(256 248)">
    <!-- Cranio -->
    <path fill="url(#cranio)" stroke="#0f172a" stroke-width="8" stroke-linejoin="round"
      d="M0 -120 C-88 -120 -132 -56 -132 8 C-132 56 -108 88 -72 104 L-72 132
         C-72 152 -56 168 -36 168 L36 168 C56 168 72 152 72 132 L72 104
         C108 88 132 56 132 8 C132 -56 88 -120 0 -120 Z"/>

    <!-- Olhos -->
    <ellipse cx="-48" cy="-8" rx="40" ry="48" fill="#0f172a"/>
    <ellipse cx="48" cy="-8" rx="40" ry="48" fill="#0f172a"/>
    <ellipse cx="-48" cy="-16" rx="14" ry="18" fill="#22d3ee" opacity="0.85"/>
    <ellipse cx="48" cy="-16" rx="14" ry="18" fill="#22d3ee" opacity="0.85"/>

    <!-- Nariz -->
    <path fill="#0f172a" d="M0 24 L-18 64 L18 64 Z"/>

    <!-- Maxilar / dentes -->
    <path fill="#e2e8f0" stroke="#0f172a" stroke-width="6" stroke-linejoin="round"
      d="M-76 132 L-76 168 C-76 188 -60 200 -40 200 L40 200 C60 200 76 188 76 168 L76 132 Z"/>
    <g fill="#0f172a">
      <rect x="-58" y="142" width="22" height="28" rx="4"/>
      <rect x="-28" y="142" width="22" height="28" rx="4"/>
      <rect x="6" y="142" width="22" height="28" rx="4"/>
      <rect x="36" y="142" width="22" height="28" rx="4"/>
    </g>

    <!-- Rachadura estilo cheat -->
    <path fill="none" stroke="#a855f7" stroke-width="7" stroke-linecap="round"
      d="M-20 -72 L8 -40 L-4 -8 L28 24"/>
  </g>

  <!-- 0x discreto -->
  <text x="256" y="448" text-anchor="middle" font-family="sans-serif" font-weight="800"
    font-size="40" fill="#ffffff" fill-opacity="0.9">0x</text>
</svg>
