<?xml version="1.0" encoding="UTF-8"?>
<svg xmlns="http://www.w3.org/2000/svg" width="512" height="512" viewBox="0 0 512 512">
  <defs>
    <linearGradient id="fundo" x1="0%" y1="0%" x2="100%" y2="100%">
      <stop offset="0%" stop-color="#06b6d4"/>
      <stop offset="55%" stop-color="#6366f1"/>
      <stop offset="100%" stop-color="#a855f7"/>
    </linearGradient>
    <linearGradient id="chip" x1="0%" y1="0%" x2="0%" y2="100%">
      <stop offset="0%" stop-color="#1e293b"/>
      <stop offset="100%" stop-color="#0f172a"/>
    </linearGradient>
    <filter id="sombra" x="-20%" y="-20%" width="140%" height="140%">
      <feDropShadow dx="0" dy="8" stdDeviation="12" flood-color="#000" flood-opacity="0.45"/>
    </filter>
  </defs>

  <g filter="url(#sombra)">
    <rect x="48" y="48" width="416" height="416" rx="96" fill="url(#fundo)"/>
    <rect x="48" y="48" width="416" height="416" rx="96" fill="none" stroke="#ffffff" stroke-opacity="0.18" stroke-width="6"/>
  </g>

  <g transform="translate(256 268)">
    <rect x="-132" y="-88" width="264" height="176" rx="20" fill="url(#chip)" stroke="#38bdf8" stroke-width="6"/>
  </g>
  <g fill="#94a3b8">
    <rect x="108" y="198" width="18" height="36" rx="4"/>
    <rect x="142" y="198" width="18" height="36" rx="4"/>
    <rect x="176" y="198" width="18" height="36" rx="4"/>
    <rect x="210" y="198" width="18" height="36" rx="4"/>
    <rect x="284" y="198" width="18" height="36" rx="4"/>
    <rect x="318" y="198" width="18" height="36" rx="4"/>
    <rect x="352" y="198" width="18" height="36" rx="4"/>
    <rect x="386" y="198" width="18" height="36" rx="4"/>
    <rect x="108" y="306" width="18" height="36" rx="4"/>
    <rect x="142" y="306" width="18" height="36" rx="4"/>
    <rect x="176" y="306" width="18" height="36" rx="4"/>
    <rect x="210" y="306" width="18" height="36" rx="4"/>
    <rect x="284" y="306" width="18" height="36" rx="4"/>
    <rect x="318" y="306" width="18" height="36" rx="4"/>
    <rect x="352" y="306" width="18" height="36" rx="4"/>
    <rect x="386" y="306" width="18" height="36" rx="4"/>
  </g>

  <g transform="translate(256 268)">
    <rect x="-88" y="-40" width="48" height="80" rx="8" fill="#22c55e"/>
    <rect x="-28" y="-56" width="48" height="96" rx="8" fill="#4ade80"/>
    <rect x="32" y="-24" width="48" height="64" rx="8" fill="#facc15"/>
    <rect x="92" y="-48" width="48" height="88" rx="8" fill="#22d3ee"/>
  </g>

  <g transform="translate(256 118)">
    <path d="M0 52 L0 -44 L-40 4 L-14 4 L-14 52 Z" fill="#ffffff" fill-opacity="0.95"/>
    <path d="M0 52 L0 -44 L40 4 L14 4 L14 52 Z" fill="#e2e8f0"/>
  </g>

  <text x="256" y="392" text-anchor="middle" font-family="sans-serif" font-weight="700" font-size="44" fill="#ffffff" fill-opacity="0.92">0x</text>
</svg>
